<?xml version="1.0" encoding="UTF-8"?>
<svg id="Layer_1" data-name="Layer 1" xmlns="http://www.w3.org/2000/svg" viewBox="0 0 298.97 325.25">
  <defs>
    <style>
      .cls-1 {
        stroke: #241f20;
        stroke-miterlimit: 10;
        stroke-width: .25px;
      }

      .cls-1, .cls-2 {
        fill: #241f20;
      }

      .cls-3 {
        fill: #010101;
        font-family: BlackRavenPUO, 'Black Raven';
        font-size: 247.43px;
      }

      .cls-2, .cls-4 {
        stroke-width: 0px;
      }

      .cls-4 {
        fill: #fff;
      }
    </style>
  </defs>
  <path class="cls-4" d="m146.36,223.16c-26.56,20.77-70.87,1.09-70.87,1.09,0,0-55.74,22.88-68.14,9.27-27.74-30.44,29.85-115.82,59.96-143.91,25.04-23.36,67.59,6.54,67.59,6.54,0,0,52.02-15.68,64.87-4.36,29.25,25.75-23.44,107.93-53.42,131.37Z"/>
  <g>
    <g>
      <path class="cls-1" d="m48.78,136.06c4.64-7.82,11.11-15.26,19.43-22.31,8.31-7.05,16.5-11.49,24.55-13.33,2.28-.58,4.33-.87,6.17-.87,7.88,0,13.87,3.62,17.99,10.86,1.49,2.61,2.23,6.76,2.23,12.46v2.75c-.26,17.67-9.41,37.13-27.44,58.38-5.95,7.05-10.99,12.44-15.1,16.15-4.12,3.72-9.37,7.56-15.76,11.52-11.03,7.05-20.53,10.57-28.49,10.57-3.68,0-6.87-.82-9.58-2.46-4.73-2.9-7.09-7.77-7.09-14.63,0-9.17,4.2-20.86,12.6-35.06,1.4-2.41,4.07-6.42,8.01-12.02,3.94-5.6,6.74-9.8,8.4-12.6.87-1.54,1.51-3.06,1.9-4.56.39-1.5,1.12-3.11,2.17-4.85Zm53.04,23.18c6.56-11.01,10.37-21.34,11.42-31,.26-1.74.39-3.38.39-4.93,0-5.21-1.16-9.29-3.48-12.24-2.32-2.94-5.71-4.42-10.18-4.42-5.34,0-11.4,2.2-18.18,6.59-6.78,4.4-11.31,8.47-13.59,12.24-.53,1.06-.74,1.93-.66,2.61-.18,2.32-1.8,4.78-4.86,7.39-3.68,3.38-8.82,9.37-15.43,17.96-6.61,8.6-11.71,15.93-15.3,22.02-7.18,12.36-10.77,22.21-10.77,29.55s3.41,10.72,10.24,10.72c.7,0,1.92-.1,3.68-.29,10.77-1.64,22.54-7.94,35.32-18.9,12.78-10.96,23.24-23.39,31.38-37.3Z"/>
      <path class="cls-1" d="m125.19,136.06c4.64-7.82,11.11-15.26,19.43-22.31,8.31-7.05,16.5-11.49,24.55-13.33,2.28-.58,4.33-.87,6.17-.87,7.88,0,13.87,3.62,17.99,10.86,1.49,2.61,2.23,6.76,2.23,12.46v2.75c-.26,17.67-9.41,37.13-27.44,58.38-5.95,7.05-10.99,12.44-15.1,16.15-4.12,3.72-9.37,7.56-15.76,11.52-11.03,7.05-20.53,10.57-28.49,10.57-3.68,0-6.87-.82-9.58-2.46-4.73-2.9-7.09-7.77-7.09-14.63,0-9.17,4.2-20.86,12.6-35.06,1.4-2.41,4.07-6.42,8.01-12.02,3.94-5.6,6.74-9.8,8.4-12.6.87-1.54,1.51-3.06,1.9-4.56.39-1.5,1.12-3.11,2.17-4.85Zm53.04,23.18c6.56-11.01,10.37-21.34,11.42-31,.26-1.74.39-3.38.39-4.93,0-5.21-1.16-9.29-3.48-12.24-2.32-2.94-5.71-4.42-10.18-4.42-5.34,0-11.4,2.2-18.18,6.59-6.78,4.4-11.31,8.47-13.59,12.24-.53,1.06-.74,1.93-.66,2.61-.18,2.32-1.8,4.78-4.86,7.39-3.68,3.38-8.82,9.37-15.43,17.96-6.61,8.6-11.71,15.93-15.3,22.02-7.18,12.36-10.77,22.21-10.77,29.55s3.41,10.72,10.24,10.72c.7,0,1.92-.1,3.68-.29,10.77-1.64,22.54-7.94,35.32-18.9,12.78-10.96,23.24-23.39,31.38-37.3Z"/>
    </g>
    <g>
      <ellipse class="cls-2" cx="68.77" cy="179.18" rx="24.11" ry="17.32" transform="translate(-122.97 187.6) rotate(-71.52)"/>
      <ellipse class="cls-2" cx="141.91" cy="182.81" rx="23.5" ry="18.73" transform="translate(-72.07 270.96) rotate(-74.57)"/>
    </g>
  </g>
  <text class="cls-3" transform="translate(222.26 203.27)"><tspan x="0" y="0">!</tspan></text>
</svg>